Coordinates
version=1
nRows=6
nColumns=38
inDegrees=yes

Units are S.I. units (second, meters, Newtons, ...)
If the header above contains a line with 'inDegrees', this indicates whether rotational values are in degrees (yes) or radians (no).

endheader
time	pelvis_tilt	pelvis_list	pelvis_rotation	pelvis_tx	pelvis_ty	pelvis_tz	hip_flexion_r	hip_adduction_r	hip_rotation_r	knee_angle_r	ankle_angle_r	subtalar_angle_r	mtp_angle_r	hip_flexion_l	hip_adduction_l	hip_rotation_l	knee_angle_l	ankle_angle_l	subtalar_angle_l	mtp_angle_l	lumbar_extension	lumbar_bending	lumbar_rotation	arm_flex_r	arm_add_r	arm_rot_r	elbow_flex_r	pro_sup_r	wrist_flex_r	wrist_dev_r	arm_flex_l	arm_add_l	arm_rot_l	elbow_flex_l	pro_sup_l	wrist_flex_l	wrist_dev_l
      0.36000000	     -3.04291694	    -11.39973560	      3.13738322	     -2.58070292	      0.98231370	      0.16365066	     37.74637167	      6.91482007	    -25.07938413	    -35.65484556	      3.25014268	      9.78161840	      0.00000000	      8.37224327	    -15.03835872	     -1.72345093	   -134.77054971	     -8.91427670	     -2.40521563	      0.00000000	    -17.76882429	     18.15332774	      1.77458283	    -30.15901124	    -34.74596985	      1.68489451	     83.63839347	     60.00586988	      0.00000000	      0.00000000	      1.90899537	    -16.39989296	     21.35154308	     62.39755179	     60.00014031	      0.00000000	      0.00000000
      0.36400000	     -3.19948868	    -11.95388015	      1.80459633	     -2.54421005	      0.97994783	      0.16597512	     36.49315077	      8.60076831	    -24.38993448	    -37.06563846	      7.17931749	     10.02184348	      0.00000000	     11.31464699	    -15.82167845	     -2.23757472	   -137.43756155	     -8.11254326	     -2.58000374	      0.00000000	    -18.25606409	     18.24472565	      3.85360188	    -26.54036831	    -36.00648050	      3.47199006	     84.21490385	     60.00586988	      0.00000000	      0.00000000	      1.19662649	    -16.16606985	     22.65790157	     56.73081490	     60.00014031	      0.00000000	      0.00000000
      0.36800000	     -3.41791398	    -12.35305838	      0.52887950	     -2.50768671	      0.97719706	      0.16787530	     35.19736310	     10.08823173	    -23.86753457	    -38.86268171	     11.62377793	      9.26068574	      0.00000000	     14.36176844	    -16.45445047	     -2.67732760	   -139.85628996	     -7.21799947	     -2.79628900	      0.00000000	    -18.60502756	     18.18394642	      5.78530100	    -22.74064482	    -37.26149182	      5.31374119	     84.70896096	     60.00586988	      0.00000000	      0.00000000	      0.45691234	    -16.02599335	     24.29067529	     51.24473484	     60.00014031	      0.00000000	      0.00000000
      0.37200000	     -3.47251394	    -12.77169334	     -0.75721168	     -2.47088773	      0.97470247	      0.16999483	     33.56502568	     11.66694134	    -22.97622054	    -40.54200651	     16.17357110	      8.17039471	      0.00000000	     17.30492128	    -17.21802013	     -2.96999598	   -141.93573303	     -6.46076120	     -2.81283377	      0.00000000	    -19.10427754	     18.05960048	      7.69428005	    -18.61911359	    -38.38559345	      7.25965113	     85.06705990	     60.00586988	      0.00000000	      0.00000000	     -0.47818070	    -16.08761359	     26.25827347	     46.16865528	     60.00014031	      0.00000000	      0.00000000
      0.37600000	     -3.44734441	    -13.26987014	     -1.99947100	     -2.43400735	      0.97238504	      0.17221756	     31.73938999	     13.31427204	    -21.83362222	    -41.84148863	     19.74603706	      7.58844579	      0.00000000	     20.17233971	    -18.12495582	     -3.01547660	   -143.67787127	     -5.59995569	     -2.57484125	      0.00000000	    -19.68084140	     17.94437342	      9.59696079	    -14.31739733	    -39.38743337	      9.13427203	     85.42115801	     60.00586988	      0.00000000	      0.00000000	     -1.76051097	    -16.32376573	     27.99742882	     41.90222255	     60.00014031	      0.00000000	      0.00000000
      0.38000000	     -2.83682935	    -13.55108737	     -3.23302072	     -2.39618036	      0.97118226	      0.17360849	     29.16188283	     14.33588998	    -20.83442560	    -43.32802964	     22.81264899	      6.90372191	      0.00000000	     22.66873905	    -19.04571744	     -3.49285425	   -144.91879569	     -5.98534586	     -3.48645799	      0.00000000	    -20.73675455	     17.59844253	     11.52791313	     -9.95803841	    -40.40374272	     11.16093349	     85.75443180	     60.00586988	      0.00000000	      0.00000000	     -3.32809697	    -16.47159381	     29.46411351	     38.08964436	     60.00014031	      0.00000000	      0.00000000
